<svg width="24" height="24" viewBox="0 0 24 24" fill="none" xmlns="http://www.w3.org/2000/svg">
  <path fill-rule="evenodd" clip-rule="evenodd" d="M5.17874 5.00232C5.12859 5.00079 5.07838 5.00001 5.02812 5H2.41666C1.90851 5.00057 1.42133 5.20268 1.06201 5.56201C0.702684 5.92133 0.500567 6.40851 0.499996 6.91666C0.499996 6.9802 0.515772 7.04212 0.545155 7.09717C0.515774 7.04212 0.5 6.98021 0.5 6.91667C0.500571 6.40851 0.702688 5.92133 1.06201 5.56201C1.42133 5.20269 1.90851 5.00057 2.41667 5H5.02812C5.07839 5.00002 5.1286 5.00079 5.17874 5.00232ZM0.640389 7.21319C0.666842 7.23486 0.695935 7.25278 0.726831 7.2666C0.775605 7.28841 0.828872 7.3 0.883333 7.3H1.05315C1.22924 7.30003 1.4015 7.34046 1.55733 7.41649C1.65083 7.46211 1.73841 7.52054 1.81736 7.59076M2.19529 8.31583L2.19529 8.31583C2.18076 8.19234 2.14645 8.0731 2.09455 7.96231C2.14645 8.0731 2.18076 8.19234 2.19529 8.31583ZM0.88333 7.585H1.05309C1.26501 7.58505 1.4696 7.66288 1.62795 7.80372C1.78631 7.94457 1.88747 8.13865 1.91224 8.34913L3.12689 18.674C3.19003 19.2096 3.44753 19.7034 3.85056 20.0618C4.25359 20.4202 4.77419 20.6182 5.31351 20.6183H15.6199C16.1592 20.6182 16.6797 20.4202 17.0828 20.0618C17.4858 19.7034 17.7433 19.2095 17.8064 18.6739L18.8404 9.885H19.7638H20.2267L20.3558 10.9178L20.7523 14.0901C20.8196 14.6222 21.0785 15.1115 21.4805 15.4664C21.8826 15.8214 22.4006 16.0176 22.9369 16.0183H23.1167C23.2939 16.0183 23.4639 15.9479 23.5892 15.8226C23.7146 15.6972 23.785 15.5272 23.785 15.35V8.44968C23.7843 7.86604 23.5522 7.3065 23.1395 6.89381C22.7268 6.48112 22.167 6.24899 21.5833 6.24833H10.1549C9.47075 6.248 8.79835 6.06939 8.20417 5.73023L7.6419 5.40894C6.84575 4.9545 5.94484 4.71534 5.02812 4.715H2.41634C1.83271 4.71565 1.27317 4.94779 0.86048 5.36048C0.447789 5.77317 0.215652 6.33303 0.214996 6.91666C0.214996 7.09392 0.28541 7.26391 0.410747 7.38925C0.536084 7.51458 0.706077 7.585 0.88333 7.585ZM2.42558 7.11212C2.42558 7.11212 2.42558 7.11211 2.42557 7.11211C2.26548 6.94784 2.07837 6.81478 1.87385 6.7178C1.78744 6.67683 1.69793 6.64231 1.60603 6.61459C1.5147 6.58704 1.42102 6.56623 1.3257 6.5525C1.3257 6.5525 1.3257 6.5525 1.3257 6.5525C1.51694 6.58004 1.70157 6.63612 1.87385 6.7178M10.155 7.585H17.7649L16.4789 18.5177C16.4541 18.7281 16.3529 18.9222 16.1946 19.063C16.0362 19.2038 15.8317 19.2816 15.6198 19.2817H5.31351C5.10162 19.2816 4.8971 19.2038 4.73876 19.063C4.58041 18.9222 4.47923 18.7281 4.45441 18.5177L3.23973 8.19268C3.18292 7.71062 2.96846 7.26082 2.62968 6.9132C2.38406 6.66117 2.08307 6.47309 1.75302 6.36233C1.79915 6.3072 1.85223 6.2577 1.91124 6.21519C2.05851 6.10912 2.23534 6.05192 2.41683 6.05166H5.02825C5.7125 6.05204 6.38488 6.23069 6.97908 6.56999L7.5412 6.89106C8.33735 7.34546 9.23826 7.58462 10.155 7.585ZM21.4797 9.13377C21.4595 8.97219 21.381 8.82353 21.2589 8.71573C21.1369 8.60792 20.9795 8.5484 20.8167 8.54833H18.9976L19.111 7.585L21.583 7.585C21.8123 7.58531 22.0324 7.67656 22.1946 7.83874C22.3568 8.00096 22.4481 8.22091 22.4483 8.45033V14.5299C22.3983 14.4955 22.3517 14.4558 22.3095 14.4113C22.1827 14.2775 22.1018 14.1064 22.0786 13.9235L21.4797 9.13377ZM16.8247 13.8948L16.8249 13.8929C16.8444 13.7175 16.7937 13.5415 16.6839 13.4033C16.5741 13.2652 16.4141 13.176 16.2388 13.1554C16.0635 13.1348 15.8872 13.1843 15.7483 13.2932C15.6094 13.4021 15.5192 13.5616 15.4975 13.7367L15.0255 17.7483H13.9167C13.7394 17.7483 13.5694 17.8187 13.4441 17.9441C13.3187 18.0694 13.2483 18.2394 13.2483 18.4167C13.2483 18.5939 13.3187 18.7639 13.4441 18.8892C13.5694 19.0146 13.7394 19.085 13.9167 19.085H15.2789C15.5366 19.085 15.7853 18.9904 15.9778 18.8192C16.1703 18.648 16.2933 18.4121 16.3234 18.1562L16.8247 13.8948ZM15.7803 13.7719L15.2789 18.0333H13.9167L15.2789 18.0333L15.7803 13.7719ZM12.8559 17.9441C12.7306 17.8187 12.5606 17.7483 12.3833 17.7483H11.6167C11.4394 17.7483 11.2694 17.8187 11.1441 17.9441C11.0187 18.0694 10.9483 18.2394 10.9483 18.4167C10.9483 18.5939 11.0187 18.7639 11.1441 18.8892C11.2694 19.0146 11.4394 19.085 11.6167 19.085H12.3833C12.5606 19.085 12.7306 19.0146 12.8559 18.8892C12.9813 18.7639 13.0517 18.5939 13.0517 18.4167C13.0517 18.2394 12.9813 18.0694 12.8559 17.9441ZM9.415 9.21666C9.415 9.39391 9.48541 9.56391 9.61075 9.68925C9.73608 9.81458 9.90608 9.885 10.0833 9.885H11.715V10.0817H10.85C10.6727 10.0817 10.5028 10.1521 10.3774 10.2774C10.2521 10.4027 10.1817 10.5727 10.1817 10.75C10.1817 10.9272 10.2521 11.0972 10.3774 11.2226C10.5028 11.3479 10.6727 11.4183 10.85 11.4183H11.715V11.615H10.0833C9.90608 11.615 9.73608 11.6854 9.61075 11.8107C9.48541 11.9361 9.415 12.1061 9.415 12.2833C9.415 12.4606 9.48541 12.6306 9.61075 12.7559C9.73608 12.8813 9.90608 12.9517 10.0833 12.9517H11.715V13.1483H10.85C10.6727 13.1483 10.5028 13.2187 10.3774 13.3441C10.2521 13.4694 10.1817 13.6394 10.1817 13.8167C10.1817 13.9939 10.2521 14.1639 10.3774 14.2892C10.4189 14.3308 10.4654 14.3663 10.5153 14.3952C10.6162 14.4535 10.7315 14.485 10.85 14.485H11.715V14.6817H10.2103H10.0833C9.90608 14.6817 9.73608 14.7521 9.61075 14.8774C9.48541 15.0028 9.415 15.1727 9.415 15.35C9.415 15.3751 9.41641 15.4001 9.4192 15.4248C9.43607 15.5746 9.50318 15.715 9.61075 15.8226C9.73608 15.9479 9.90608 16.0183 10.0833 16.0183H12.3833C12.5606 16.0183 12.7306 15.9479 12.8559 15.8226C12.9813 15.6972 13.0517 15.5272 13.0517 15.35V12.0126V9.21666C13.0517 9.03941 12.9813 8.86942 12.8559 8.74408C12.7306 8.61874 12.5606 8.54833 12.3833 8.54833H10.0833C9.90608 8.54833 9.73608 8.61874 9.61075 8.74408C9.48541 8.86942 9.415 9.03941 9.415 9.21666ZM8.55 9.885C8.91911 9.885 9.21833 9.58577 9.21833 9.21666C9.21833 8.84755 8.91911 8.54833 8.55 8.54833C8.18089 8.54833 7.88166 8.84755 7.88166 9.21666C7.88166 9.58577 8.18089 9.885 8.55 9.885ZM8.55 12.9517C8.91911 12.9517 9.21833 12.6524 9.21833 12.2833C9.21833 11.9142 8.91911 11.615 8.55 11.615C8.18089 11.615 7.88166 11.9142 7.88166 12.2833C7.88166 12.6524 8.18089 12.9517 8.55 12.9517ZM9.10935 15.7159C9.17826 15.6108 9.21833 15.4851 9.21833 15.35C9.21833 14.9809 8.91911 14.6817 8.55 14.6817C8.18089 14.6817 7.88166 14.9809 7.88166 15.35C7.88166 15.7191 8.18089 16.0183 8.55 16.0183C8.67007 16.0183 8.78275 15.9867 8.88014 15.9312C8.97257 15.8786 9.05122 15.8046 9.10935 15.7159ZM10.0833 14.9667L12 14.9667L12 14.2V14.9667H10.0833ZM11.5392 13.4333L12 13.4333L12 13.0005V13.4333H11.5392ZM10.0833 11.9L12 11.9L12 11.1333V11.9H10.0833ZM10.85 10.3667L12 10.3667L12 9.6V10.3667H10.85ZM8.21499 9.03019C8.18421 9.08539 8.16666 9.14898 8.16666 9.21666C8.16666 9.24313 8.16934 9.26896 8.17445 9.29392C8.16934 9.26896 8.16667 9.24313 8.16667 9.21667C8.16667 9.14898 8.18421 9.08539 8.21499 9.03019ZM8.16712 12.3023C8.16682 12.296 8.16667 12.2897 8.16667 12.2833C8.16667 12.2039 8.1908 12.1302 8.23213 12.069C8.1908 12.1302 8.16666 12.2039 8.16666 12.2833C8.16666 12.2897 8.16682 12.296 8.16712 12.3023Z" fill="black"/>
</svg>