<svg width="24" height="24" viewBox="0 0 24 24" fill="none" xmlns="http://www.w3.org/2000/svg">
  <path fill-rule="evenodd" clip-rule="evenodd" d="M22.7653 11.9059H0.234694H0.234224C0.125139 11.9061 0.0334204 11.9809 0.00741633 12.0819L0.00699389 12.0835L0.00661836 12.085L0.00628979 12.0864L0.00596122 12.0879L0.00558573 12.0894L0.00530408 12.0908L0.00497551 12.0923L0.00464694 12.0938L0.00436533 12.0953L0.00408367 12.0968L0.00366123 12.0991L0.00342653 12.1005L0.00319183 12.1019L0.00291022 12.1034L0.00272243 12.1048L0.00248778 12.1063L0.00229999 12.1077L0.00206529 12.1092L0.00187755 12.1107L0.00168981 12.1121L0.00154898 12.1137L0.00136124 12.1151L0.00122041 12.1166L0.00107958 12.1181L0.000938797 12.1196L0.000797969 12.121L0.000704098 12.1225L0.000563269 12.124L0.000469399 12.1255L0.000375528 12.127L0.00032857 12.1285L0.000234699 12.13L0.000187741 12.1315L0.000140829 12.133L9.38707e-05 12.1345L4.69578e-05 12.136L0 12.1375V12.139V12.1405C0 14.6518 2.03879 16.6906 4.55001 16.6906H9.54674C11.9794 16.6906 13.9687 14.7774 14.0908 12.3752H16.3529V13.1399C16.3529 13.5703 16.7023 13.9197 17.1327 13.9197H22.2202C22.6506 13.9197 23 13.5703 23 13.1399V12.1405C23 12.0262 22.918 11.9309 22.8097 11.9101L22.8083 11.9098L22.8068 11.9095L22.8054 11.9093L22.8039 11.909L22.8025 11.9088L22.801 11.9086L22.7996 11.9083L22.7981 11.9082L22.7967 11.908L22.7952 11.9078L22.7937 11.9076L22.7922 11.9074L22.7907 11.9072L22.7893 11.9071L22.7878 11.9069L22.7863 11.9068L22.7848 11.9067L22.7833 11.9066L22.7819 11.9065L22.7804 11.9063L22.7789 11.9063L22.7774 11.9062L22.7759 11.9061L22.7744 11.906L22.7729 11.906L22.7714 11.9059L22.7699 11.9059H22.7684L22.7668 11.9059H22.7653ZM13.6207 12.3752H0.476053C0.597906 14.5185 2.3767 16.2212 4.55001 16.2212H9.54674C11.7201 16.2212 13.4989 14.5185 13.6207 12.3752ZM22.5306 12.3752H16.8222V13.1399C16.8222 13.3112 16.9613 13.4503 17.1327 13.4503H22.2202C22.3915 13.4503 22.5306 13.3112 22.5306 13.1399V12.3752ZM5.29591 10.6774C5.17017 10.588 5.08962 10.4998 5.04855 10.4056C5.00494 10.3058 5.01001 10.2025 5.03465 10.096C5.06756 9.95386 5.13444 9.80764 5.20589 9.65556C5.46184 9.11098 5.74901 8.51016 5.36299 7.84386C5.29807 7.73177 5.15435 7.69347 5.04226 7.75844C4.93017 7.82335 4.89191 7.96708 4.95683 8.07912C5.15918 8.42844 5.08446 8.75204 4.96335 9.05381C4.86511 9.29859 4.73603 9.53174 4.65093 9.75455C4.54405 10.0345 4.50532 10.3025 4.60404 10.5586C4.6697 10.7291 4.79714 10.8987 5.0239 11.0599C5.12947 11.135 5.27611 11.1102 5.35116 11.0047C5.42626 10.8991 5.40148 10.7525 5.29591 10.6774ZM9.29327 10.6774C9.16752 10.588 9.08697 10.4998 9.0459 10.4056C9.00229 10.3058 9.00741 10.2025 9.03205 10.096C9.06491 9.95386 9.1318 9.80764 9.20324 9.65556C9.4592 9.11098 9.74637 8.51016 9.36034 7.84386C9.29543 7.73177 9.1517 7.69347 9.03961 7.75844C8.92757 7.82335 8.88927 7.96708 8.95418 8.07912C9.15658 8.42844 9.08181 8.75204 8.96075 9.05381C8.86251 9.29859 8.73338 9.53174 8.64833 9.75455C8.5414 10.0345 8.50268 10.3025 8.60139 10.5586C8.66706 10.7291 8.7945 10.8987 9.02126 11.0599C9.12682 11.135 9.27346 11.1102 9.34856 11.0047C9.42362 10.8991 9.39883 10.7525 9.29327 10.6774ZM7.29461 9.95062C7.16887 9.8612 7.08832 9.77305 7.0472 9.67889C7.00364 9.579 7.00871 9.47574 7.03335 9.36923C7.06626 9.22706 7.1331 9.08084 7.20459 8.92881C7.4605 8.38418 7.74767 7.78336 7.36169 7.11707C7.29673 7.00498 7.15305 6.96667 7.04096 7.03164C6.92887 7.09655 6.89057 7.24028 6.95553 7.35237C7.15788 7.70164 7.08316 8.02524 6.96205 8.32701C6.86381 8.57179 6.73473 8.80494 6.64963 9.02775C6.5427 9.3077 6.50402 9.57567 6.60269 9.83182C6.6684 10.0023 6.7958 10.1719 7.0226 10.3331C7.12812 10.4082 7.27481 10.3834 7.34986 10.2779C7.42492 10.1723 7.40018 10.0257 7.29461 9.95062Z" fill="black"/>
</svg>