<svg width="24" height="24" viewBox="0 0 24 24" fill="none" xmlns="http://www.w3.org/2000/svg">
  <path fill-rule="evenodd" clip-rule="evenodd" d="M1.92482 2.26004C1.81755 2.26118 1.71483 2.30345 1.63791 2.37821C1.56099 2.45297 1.51575 2.5545 1.51155 2.66169C1.50736 2.76887 1.54453 2.8735 1.61537 2.95404C1.68622 3.03459 1.78532 3.08484 1.89216 3.09436L20.1181 4.73523C20.1728 4.74021 20.228 4.73443 20.2804 4.71809C20.3328 4.70174 20.3815 4.6752 20.4237 4.64002C20.4659 4.60485 20.5008 4.56173 20.5263 4.51308C20.5518 4.46443 20.5674 4.41115 20.5724 4.35644C20.5773 4.30174 20.5714 4.24662 20.555 4.19419C20.5386 4.14177 20.5121 4.09308 20.4769 4.05092C20.4416 4.00876 20.3985 3.97403 20.3498 3.94857C20.3011 3.92311 20.2479 3.90744 20.1932 3.90255L1.96726 2.26167C1.95312 2.26095 1.93895 2.26095 1.92481 2.26167L1.92482 2.26004Z" fill="black"/>
  <path d="M1.9183 2.26004C1.81452 2.26129 1.71491 2.30105 1.63887 2.37168C1.56282 2.4423 1.51576 2.53869 1.50685 2.64209L1.34848 4.49849C1.27556 5.356 1.94165 6.10717 2.80649 6.18508L5.43026 6.42019C6.29509 6.49793 7.08309 5.8752 7.15603 5.01769L7.31441 3.1613C7.32392 3.05087 7.28919 2.94121 7.21785 2.85639C7.14651 2.77156 7.04441 2.71859 6.93398 2.70904L1.96075 2.26167C1.94661 2.26095 1.93244 2.26095 1.9183 2.26167L1.9183 2.26004ZM2.30362 3.13191L6.4458 3.50417L6.32335 4.94585C6.2903 5.3344 5.93838 5.62646 5.50536 5.5875L2.8816 5.35239C2.44858 5.3131 2.14813 4.95887 2.18116 4.57033L2.30362 3.13191V3.13191Z" fill="black"/>
  <path fill-rule="evenodd" clip-rule="evenodd" d="M20.1606 3.92867C20.1087 3.92836 20.0572 3.93768 20.0087 3.95622L0.790079 11.0292C0.736404 11.0465 0.686775 11.0743 0.644177 11.1113C0.601579 11.1482 0.566892 11.1934 0.542205 11.2441C0.517517 11.2948 0.503338 11.35 0.500522 11.4063C0.497705 11.4626 0.506309 11.5189 0.525815 11.5718C0.545322 11.6247 0.575328 11.673 0.614027 11.714C0.652727 11.755 0.699322 11.7879 0.751007 11.8104C0.802692 11.8329 0.858399 11.8447 0.914778 11.8452C0.971157 11.8456 1.02704 11.8347 1.07907 11.8129L20.2977 4.73992C20.39 4.7068 20.4678 4.64224 20.5173 4.55757C20.5669 4.4729 20.5851 4.37357 20.5687 4.27685C20.5524 4.18012 20.5025 4.09215 20.4279 4.02847C20.3533 3.96479 20.2587 3.92941 20.1606 3.92847V3.92867Z" fill="black"/>
  <path d="M7.86132 8.45779C7.809 8.45674 7.75693 8.46554 7.70785 8.48371L0.785155 11.0306C0.681366 11.0686 0.596822 11.146 0.550011 11.2462C0.503199 11.3463 0.497928 11.4609 0.535351 11.5648L1.49375 14.2262C1.89276 15.3346 3.13597 15.9008 4.24814 15.4915L7.90051 14.1478C9.0127 13.7385 9.60242 12.5035 9.20341 11.395L8.24501 8.73371C8.21637 8.65438 8.16439 8.58561 8.09591 8.53636C8.02743 8.48711 7.94565 8.4597 7.86132 8.45779V8.45779ZM7.60009 9.41292L8.41645 11.6775C8.66029 12.3549 8.30562 13.107 7.61152 13.3624L3.95915 14.7078C3.26506 14.9633 2.52456 14.6211 2.28072 13.9437L1.46273 11.6726L7.60009 9.41292V9.41292Z" fill="black"/>
  <path fill-rule="evenodd" clip-rule="evenodd" d="M20.1426 3.92379C20.0344 3.92637 19.9314 3.97087 19.8552 4.04788L3.98693 19.7464C3.94657 19.7847 3.91426 19.8307 3.89189 19.8816C3.86952 19.9325 3.85754 19.9874 3.85665 20.043C3.85576 20.0987 3.86599 20.1539 3.88672 20.2055C3.90746 20.2571 3.93829 20.3041 3.97741 20.3437C4.01653 20.3832 4.06315 20.4145 4.11454 20.4358C4.16593 20.4571 4.22105 20.4679 4.27668 20.4676C4.33231 20.4674 4.38732 20.456 4.4385 20.4342C4.48968 20.4124 4.53598 20.3806 4.57471 20.3407L20.443 4.64218C20.5035 4.58372 20.5449 4.50844 20.5619 4.42605C20.5789 4.34367 20.5706 4.25804 20.5381 4.18043C20.5057 4.10283 20.4506 4.03682 20.38 3.99104C20.3094 3.94525 20.2267 3.92181 20.1426 3.92379V3.92379Z" fill="black"/>
  <path d="M10.7365 13.2318C10.6293 13.234 10.527 13.2772 10.4508 13.3526L3.98365 19.7512C3.94436 19.7901 3.91318 19.8364 3.89189 19.8874C3.87061 19.9384 3.85965 19.9931 3.85965 20.0484C3.85965 20.1037 3.87061 20.1584 3.89189 20.2094C3.91318 20.2604 3.94436 20.3067 3.98365 20.3455L6.43271 22.7685C7.51384 23.8381 9.27336 23.8381 10.3545 22.7685L13.4877 19.668C14.5687 18.5984 14.5687 16.8452 13.4877 15.7756L11.0386 13.3526C10.9989 13.3133 10.9517 13.2824 10.8998 13.2616C10.8479 13.2409 10.7924 13.2308 10.7365 13.2318V13.2318ZM10.7447 14.2376L12.8999 16.3699C13.6599 17.1218 13.6599 18.3218 12.8999 19.0737L9.76674 22.1742C9.00676 22.926 7.7805 22.926 7.02052 22.1742L4.87187 20.0484L10.7447 14.2376V14.2376Z" fill="black"/>
  <path d="M21.194 1.06654C22.3708 1.32209 23.2739 2.27586 23.4635 3.46499C23.6531 4.65421 23.0917 5.84077 22.0528 6.44959C21.014 7.05832 19.7044 6.96768 18.7597 6.22101C18.6727 6.15215 18.6166 6.05152 18.6037 5.9413C18.5909 5.83109 18.6223 5.72025 18.6912 5.63323C18.76 5.54621 18.8606 5.49017 18.9708 5.47731C19.081 5.46445 19.1918 5.49582 19.2789 5.56466C19.9554 6.09933 20.886 6.16559 21.63 5.72956C22.3739 5.29361 22.7731 4.44882 22.6374 3.59724C22.5016 2.74558 21.8604 2.06588 21.0177 1.88289C20.1751 1.69991 19.3098 2.05242 18.8331 2.77109C18.7719 2.86353 18.6764 2.92784 18.5677 2.94987C18.459 2.9719 18.346 2.94992 18.2535 2.88864C18.1611 2.82737 18.0968 2.73182 18.0747 2.62312C18.0527 2.51443 18.0747 2.40148 18.136 2.30903C18.8016 1.30556 20.0173 0.81099 21.194 1.06654V1.06654Z" fill="black"/>
</svg>