<svg width="24" height="24" viewBox="0 0 24 24" fill="none" xmlns="http://www.w3.org/2000/svg">
  <path d="M22.2333 8.48041H19.1667H3.83333H0.766667C0.3427 8.48041 0 8.82387 0 9.24707C0 9.67027 0.3427 10.0137 0.766667 10.0137H3.06667V18.4471C3.06667 19.7151 4.0986 20.7471 5.36667 20.7471H17.6333C18.9014 20.7471 19.9333 19.7151 19.9333 18.4471V10.0137H22.2333C22.6573 10.0137 23 9.67027 23 9.24707C23 8.82387 22.6573 8.48041 22.2333 8.48041ZM17.6333 19.2137H5.36667C4.94347 19.2137 4.6 18.8695 4.6 18.4471V10.0137H18.4V18.4471C18.4 18.8695 18.0565 19.2137 17.6333 19.2137Z" fill="black"/>
  <path d="M3.83333 7.72217H19.1667C19.5906 7.72217 19.9333 7.3787 19.9333 6.9555C19.9333 6.5323 19.5906 6.18883 19.1667 6.18883H12.2046V4.76667C12.2046 4.34347 11.8619 4 11.4379 4C11.0139 4 10.6712 4.34347 10.6712 4.76667V6.18883H3.83333C3.40937 6.18883 3.06667 6.5323 3.06667 6.9555C3.06667 7.3787 3.40937 7.72217 3.83333 7.72217Z" fill="black"/>
</svg>